<mxfile host="app.diagrams.net" agent="Mozilla/5.0 (Windows NT 10.0; Win64; x64) AppleWebKit/537.36 (KHTML, like Gecko) Chrome/134.0.0.0 Safari/537.36" version="26.1.1">
  <diagram name="Page-1" id="NBWemcQ4p-BG5_rGheCO">
    <mxGraphModel dx="2453" dy="1997" grid="1" gridSize="10" guides="1" tooltips="1" connect="1" arrows="1" fold="1" page="1" pageScale="1" pageWidth="850" pageHeight="1100" math="0" shadow="0">
      <root>
        <mxCell id="0" />
        <mxCell id="1" parent="0" />
        <mxCell id="hu-6dLjI5PSRS7n1T90g-1" value="Customer" style="rounded=0;whiteSpace=wrap;html=1;" parent="1" vertex="1">
          <mxGeometry x="843" y="746.81" width="120" height="60" as="geometry" />
        </mxCell>
        <mxCell id="hu-6dLjI5PSRS7n1T90g-2" value="&lt;b&gt;&lt;u&gt;CID&lt;/u&gt;&lt;/b&gt;" style="ellipse;whiteSpace=wrap;html=1;fillColor=#fff2cc;strokeColor=#d6b656;" parent="1" vertex="1">
          <mxGeometry x="690" y="499.99999999999994" width="80" height="50" as="geometry" />
        </mxCell>
        <mxCell id="hu-6dLjI5PSRS7n1T90g-3" value="FName" style="ellipse;whiteSpace=wrap;html=1;" parent="1" vertex="1">
          <mxGeometry x="770" y="500" width="80" height="50" as="geometry" />
        </mxCell>
        <mxCell id="hu-6dLjI5PSRS7n1T90g-4" value="LName" style="ellipse;whiteSpace=wrap;html=1;" parent="1" vertex="1">
          <mxGeometry x="852.5" y="500" width="80" height="50" as="geometry" />
        </mxCell>
        <mxCell id="hu-6dLjI5PSRS7n1T90g-5" value="Email" style="ellipse;whiteSpace=wrap;html=1;" parent="1" vertex="1">
          <mxGeometry x="690" y="555" width="80" height="50" as="geometry" />
        </mxCell>
        <mxCell id="hu-6dLjI5PSRS7n1T90g-8" value="Phone_number" style="ellipse;whiteSpace=wrap;html=1;" parent="1" vertex="1">
          <mxGeometry x="992.5" y="550" width="90" height="60" as="geometry" />
        </mxCell>
        <mxCell id="hu-6dLjI5PSRS7n1T90g-9" value="HashedPassword" style="ellipse;whiteSpace=wrap;html=1;" parent="1" vertex="1">
          <mxGeometry x="1012.5" y="630" width="107.5" height="54.31" as="geometry" />
        </mxCell>
        <mxCell id="hu-6dLjI5PSRS7n1T90g-10" value="Date_registered" style="ellipse;whiteSpace=wrap;html=1;" parent="1" vertex="1">
          <mxGeometry x="675" y="660" width="110" height="60" as="geometry" />
        </mxCell>
        <mxCell id="hu-6dLjI5PSRS7n1T90g-22" value="" style="endArrow=none;html=1;rounded=0;entryX=0.032;entryY=0.766;entryDx=0;entryDy=0;entryPerimeter=0;exitX=1;exitY=0;exitDx=0;exitDy=0;" parent="1" source="hu-6dLjI5PSRS7n1T90g-1" target="hu-6dLjI5PSRS7n1T90g-8" edge="1">
          <mxGeometry width="50" height="50" relative="1" as="geometry">
            <mxPoint x="962.5" y="589.31" as="sourcePoint" />
            <mxPoint x="994.5" y="502.31" as="targetPoint" />
          </mxGeometry>
        </mxCell>
        <mxCell id="hu-6dLjI5PSRS7n1T90g-23" value="" style="endArrow=none;html=1;rounded=0;entryX=-0.029;entryY=0.375;entryDx=0;entryDy=0;entryPerimeter=0;exitX=1;exitY=0.25;exitDx=0;exitDy=0;" parent="1" source="hu-6dLjI5PSRS7n1T90g-1" target="hu-6dLjI5PSRS7n1T90g-9" edge="1">
          <mxGeometry width="50" height="50" relative="1" as="geometry">
            <mxPoint x="962.5" y="609.31" as="sourcePoint" />
            <mxPoint x="1004.5" y="512.31" as="targetPoint" />
          </mxGeometry>
        </mxCell>
        <mxCell id="hu-6dLjI5PSRS7n1T90g-25" value="" style="endArrow=none;html=1;rounded=0;entryX=0.5;entryY=1;entryDx=0;entryDy=0;" parent="1" source="hu-6dLjI5PSRS7n1T90g-1" target="hu-6dLjI5PSRS7n1T90g-4" edge="1">
          <mxGeometry width="50" height="50" relative="1" as="geometry">
            <mxPoint x="912.5" y="569.31" as="sourcePoint" />
            <mxPoint x="1014.5" y="522.31" as="targetPoint" />
          </mxGeometry>
        </mxCell>
        <mxCell id="hu-6dLjI5PSRS7n1T90g-26" value="" style="endArrow=none;html=1;rounded=0;entryX=1;entryY=1;entryDx=0;entryDy=0;exitX=0.25;exitY=0;exitDx=0;exitDy=0;" parent="1" source="hu-6dLjI5PSRS7n1T90g-1" target="hu-6dLjI5PSRS7n1T90g-3" edge="1">
          <mxGeometry width="50" height="50" relative="1" as="geometry">
            <mxPoint x="972.5" y="629.31" as="sourcePoint" />
            <mxPoint x="1024.5" y="532.31" as="targetPoint" />
          </mxGeometry>
        </mxCell>
        <mxCell id="hu-6dLjI5PSRS7n1T90g-27" value="" style="endArrow=none;html=1;rounded=0;entryX=1;entryY=1;entryDx=0;entryDy=0;exitX=0;exitY=0;exitDx=0;exitDy=0;" parent="1" source="hu-6dLjI5PSRS7n1T90g-1" target="hu-6dLjI5PSRS7n1T90g-2" edge="1">
          <mxGeometry width="50" height="50" relative="1" as="geometry">
            <mxPoint x="832.5" y="579.31" as="sourcePoint" />
            <mxPoint x="1034.5" y="542.31" as="targetPoint" />
          </mxGeometry>
        </mxCell>
        <mxCell id="hu-6dLjI5PSRS7n1T90g-28" value="" style="endArrow=none;html=1;rounded=0;entryX=1;entryY=1;entryDx=0;entryDy=0;exitX=0;exitY=0.25;exitDx=0;exitDy=0;" parent="1" source="hu-6dLjI5PSRS7n1T90g-1" target="hu-6dLjI5PSRS7n1T90g-5" edge="1">
          <mxGeometry width="50" height="50" relative="1" as="geometry">
            <mxPoint x="992.5" y="649.31" as="sourcePoint" />
            <mxPoint x="742.5" y="594.31" as="targetPoint" />
          </mxGeometry>
        </mxCell>
        <mxCell id="hu-6dLjI5PSRS7n1T90g-29" value="" style="endArrow=none;html=1;rounded=0;entryX=1;entryY=0;entryDx=0;entryDy=0;exitX=0;exitY=0.5;exitDx=0;exitDy=0;" parent="1" source="hu-6dLjI5PSRS7n1T90g-1" target="hu-6dLjI5PSRS7n1T90g-10" edge="1">
          <mxGeometry width="50" height="50" relative="1" as="geometry">
            <mxPoint x="1002.5" y="659.31" as="sourcePoint" />
            <mxPoint x="1054.5" y="562.31" as="targetPoint" />
          </mxGeometry>
        </mxCell>
        <mxCell id="hu-6dLjI5PSRS7n1T90g-30" value="Vendor" style="rounded=0;whiteSpace=wrap;html=1;" parent="1" vertex="1">
          <mxGeometry x="802.5" y="228.09" width="120" height="60" as="geometry" />
        </mxCell>
        <mxCell id="hu-6dLjI5PSRS7n1T90g-31" value="&lt;b&gt;&lt;u&gt;VID&lt;/u&gt;&lt;/b&gt;" style="ellipse;whiteSpace=wrap;html=1;fillColor=#fff2cc;strokeColor=#d6b656;" parent="1" vertex="1">
          <mxGeometry x="652.5" y="118.09" width="80" height="50" as="geometry" />
        </mxCell>
        <mxCell id="hu-6dLjI5PSRS7n1T90g-32" value="Vendor_name" style="ellipse;whiteSpace=wrap;html=1;" parent="1" vertex="1">
          <mxGeometry x="752.5" y="90" width="80" height="50" as="geometry" />
        </mxCell>
        <mxCell id="hu-6dLjI5PSRS7n1T90g-34" value="Email" style="ellipse;whiteSpace=wrap;html=1;" parent="1" vertex="1">
          <mxGeometry x="632.5" y="173.09" width="80" height="50" as="geometry" />
        </mxCell>
        <mxCell id="hu-6dLjI5PSRS7n1T90g-36" value="Phone_number" style="ellipse;whiteSpace=wrap;html=1;" parent="1" vertex="1">
          <mxGeometry x="960" y="90" width="130" height="52.5" as="geometry" />
        </mxCell>
        <mxCell id="hu-6dLjI5PSRS7n1T90g-37" value="Hashed_password" style="ellipse;whiteSpace=wrap;html=1;" parent="1" vertex="1">
          <mxGeometry x="1012.5" y="238" width="127.5" height="50.09" as="geometry" />
        </mxCell>
        <mxCell id="hu-6dLjI5PSRS7n1T90g-38" value="Date_registered" style="ellipse;whiteSpace=wrap;html=1;" parent="1" vertex="1">
          <mxGeometry x="622.5" y="273" width="110" height="60" as="geometry" />
        </mxCell>
        <mxCell id="hu-6dLjI5PSRS7n1T90g-40" value="" style="endArrow=none;html=1;rounded=0;entryX=0.032;entryY=0.766;entryDx=0;entryDy=0;entryPerimeter=0;" parent="1" target="hu-6dLjI5PSRS7n1T90g-36" edge="1">
          <mxGeometry width="50" height="50" relative="1" as="geometry">
            <mxPoint x="923" y="228" as="sourcePoint" />
            <mxPoint x="964.5" y="106.09" as="targetPoint" />
          </mxGeometry>
        </mxCell>
        <mxCell id="hu-6dLjI5PSRS7n1T90g-41" value="" style="endArrow=none;html=1;rounded=0;entryX=-0.029;entryY=0.375;entryDx=0;entryDy=0;entryPerimeter=0;exitX=1;exitY=0.25;exitDx=0;exitDy=0;" parent="1" source="hu-6dLjI5PSRS7n1T90g-30" target="hu-6dLjI5PSRS7n1T90g-37" edge="1">
          <mxGeometry width="50" height="50" relative="1" as="geometry">
            <mxPoint x="932.5" y="213.09" as="sourcePoint" />
            <mxPoint x="974.5" y="116.09" as="targetPoint" />
          </mxGeometry>
        </mxCell>
        <mxCell id="hu-6dLjI5PSRS7n1T90g-43" value="" style="endArrow=none;html=1;rounded=0;entryX=1;entryY=1;entryDx=0;entryDy=0;exitX=0.25;exitY=0;exitDx=0;exitDy=0;" parent="1" source="hu-6dLjI5PSRS7n1T90g-30" target="hu-6dLjI5PSRS7n1T90g-32" edge="1">
          <mxGeometry width="50" height="50" relative="1" as="geometry">
            <mxPoint x="942.5" y="233.09" as="sourcePoint" />
            <mxPoint x="994.5" y="136.09" as="targetPoint" />
          </mxGeometry>
        </mxCell>
        <mxCell id="hu-6dLjI5PSRS7n1T90g-44" value="" style="endArrow=none;html=1;rounded=0;entryX=1;entryY=1;entryDx=0;entryDy=0;exitX=0;exitY=0;exitDx=0;exitDy=0;" parent="1" source="hu-6dLjI5PSRS7n1T90g-30" target="hu-6dLjI5PSRS7n1T90g-31" edge="1">
          <mxGeometry width="50" height="50" relative="1" as="geometry">
            <mxPoint x="802.5" y="183.09" as="sourcePoint" />
            <mxPoint x="1004.5" y="146.09" as="targetPoint" />
          </mxGeometry>
        </mxCell>
        <mxCell id="hu-6dLjI5PSRS7n1T90g-45" value="" style="endArrow=none;html=1;rounded=0;entryX=1;entryY=0.5;entryDx=0;entryDy=0;exitX=0;exitY=0.25;exitDx=0;exitDy=0;" parent="1" source="hu-6dLjI5PSRS7n1T90g-30" target="hu-6dLjI5PSRS7n1T90g-34" edge="1">
          <mxGeometry width="50" height="50" relative="1" as="geometry">
            <mxPoint x="962.5" y="253.09" as="sourcePoint" />
            <mxPoint x="1014.5" y="156.09" as="targetPoint" />
          </mxGeometry>
        </mxCell>
        <mxCell id="hu-6dLjI5PSRS7n1T90g-46" value="" style="endArrow=none;html=1;rounded=0;entryX=1;entryY=0;entryDx=0;entryDy=0;exitX=0;exitY=0.5;exitDx=0;exitDy=0;" parent="1" source="hu-6dLjI5PSRS7n1T90g-30" target="hu-6dLjI5PSRS7n1T90g-38" edge="1">
          <mxGeometry width="50" height="50" relative="1" as="geometry">
            <mxPoint x="972.5" y="263.09" as="sourcePoint" />
            <mxPoint x="1024.5" y="166.09" as="targetPoint" />
          </mxGeometry>
        </mxCell>
        <mxCell id="hu-6dLjI5PSRS7n1T90g-48" value="&lt;b&gt;&lt;u&gt;PaymentID&lt;/u&gt;&lt;/b&gt;" style="ellipse;whiteSpace=wrap;html=1;fillColor=#fff2cc;strokeColor=#d6b656;" parent="1" vertex="1">
          <mxGeometry x="1050" y="1215" width="80" height="50" as="geometry" />
        </mxCell>
        <mxCell id="hu-6dLjI5PSRS7n1T90g-50" value="name" style="ellipse;whiteSpace=wrap;html=1;" parent="1" vertex="1">
          <mxGeometry x="1140" y="1215" width="80" height="50" as="geometry" />
        </mxCell>
        <mxCell id="hu-6dLjI5PSRS7n1T90g-53" value="&lt;u&gt;&lt;b&gt;DATE&lt;/b&gt;&lt;/u&gt;" style="ellipse;whiteSpace=wrap;html=1;" parent="1" vertex="1">
          <mxGeometry x="1520" y="985" width="90" height="60" as="geometry" />
        </mxCell>
        <mxCell id="hu-6dLjI5PSRS7n1T90g-54" value="Amount" style="ellipse;whiteSpace=wrap;html=1;" parent="1" vertex="1">
          <mxGeometry x="1610" y="1037.5" width="100" height="55" as="geometry" />
        </mxCell>
        <mxCell id="hu-6dLjI5PSRS7n1T90g-57" value="" style="endArrow=none;html=1;rounded=0;entryX=0.032;entryY=0.766;entryDx=0;entryDy=0;entryPerimeter=0;exitX=0.625;exitY=-0.062;exitDx=0;exitDy=0;exitPerimeter=0;" parent="1" source="CsSzCPbxo0hBxs77Tv7x-118" target="hu-6dLjI5PSRS7n1T90g-53" edge="1">
          <mxGeometry width="50" height="50" relative="1" as="geometry">
            <mxPoint x="1570" y="1115" as="sourcePoint" />
            <mxPoint x="1612" y="988" as="targetPoint" />
          </mxGeometry>
        </mxCell>
        <mxCell id="hu-6dLjI5PSRS7n1T90g-58" value="" style="endArrow=none;html=1;rounded=0;entryX=0;entryY=1;entryDx=0;entryDy=0;" parent="1" source="CsSzCPbxo0hBxs77Tv7x-118" target="hu-6dLjI5PSRS7n1T90g-54" edge="1">
          <mxGeometry width="50" height="50" relative="1" as="geometry">
            <mxPoint x="1570" y="1130" as="sourcePoint" />
            <mxPoint x="1622" y="998" as="targetPoint" />
          </mxGeometry>
        </mxCell>
        <mxCell id="hu-6dLjI5PSRS7n1T90g-59" value="" style="endArrow=none;html=1;rounded=0;entryX=0.5;entryY=1;entryDx=0;entryDy=0;exitX=0.654;exitY=0.059;exitDx=0;exitDy=0;exitPerimeter=0;" parent="1" source="CsSzCPbxo0hBxs77Tv7x-111" target="hu-6dLjI5PSRS7n1T90g-50" edge="1">
          <mxGeometry width="50" height="50" relative="1" as="geometry">
            <mxPoint x="1510" y="1115" as="sourcePoint" />
            <mxPoint x="1632" y="1008" as="targetPoint" />
          </mxGeometry>
        </mxCell>
        <mxCell id="hu-6dLjI5PSRS7n1T90g-61" value="" style="endArrow=none;html=1;rounded=0;entryX=0.5;entryY=1;entryDx=0;entryDy=0;exitX=0.25;exitY=0;exitDx=0;exitDy=0;" parent="1" source="CsSzCPbxo0hBxs77Tv7x-111" target="hu-6dLjI5PSRS7n1T90g-48" edge="1">
          <mxGeometry width="50" height="50" relative="1" as="geometry">
            <mxPoint x="1160" y="1290" as="sourcePoint" />
            <mxPoint x="1178" y="1233" as="targetPoint" />
          </mxGeometry>
        </mxCell>
        <mxCell id="hu-6dLjI5PSRS7n1T90g-64" value="Car" style="rounded=0;whiteSpace=wrap;html=1;" parent="1" vertex="1">
          <mxGeometry x="1720" y="186.91" width="120" height="60" as="geometry" />
        </mxCell>
        <mxCell id="hu-6dLjI5PSRS7n1T90g-65" value="VIN" style="ellipse;whiteSpace=wrap;html=1;" parent="1" vertex="1">
          <mxGeometry x="1647.5" y="54.99999999999999" width="80" height="50" as="geometry" />
        </mxCell>
        <mxCell id="hu-6dLjI5PSRS7n1T90g-67" value="Make" style="ellipse;whiteSpace=wrap;html=1;" parent="1" vertex="1">
          <mxGeometry x="1740" y="39.99999999999999" width="80" height="50" as="geometry" />
        </mxCell>
        <mxCell id="hu-6dLjI5PSRS7n1T90g-68" value="Condition" style="ellipse;whiteSpace=wrap;html=1;" parent="1" vertex="1">
          <mxGeometry x="1567.5" y="106.91" width="80" height="50" as="geometry" />
        </mxCell>
        <mxCell id="hu-6dLjI5PSRS7n1T90g-69" value="Model" style="ellipse;whiteSpace=wrap;html=1;" parent="1" vertex="1">
          <mxGeometry x="1890" y="71.91" width="80" height="50" as="geometry" />
        </mxCell>
        <mxCell id="hu-6dLjI5PSRS7n1T90g-70" value="Year" style="ellipse;whiteSpace=wrap;html=1;" parent="1" vertex="1">
          <mxGeometry x="1930" y="119.99999999999997" width="90" height="45" as="geometry" />
        </mxCell>
        <mxCell id="hu-6dLjI5PSRS7n1T90g-71" value="Price" style="ellipse;whiteSpace=wrap;html=1;" parent="1" vertex="1">
          <mxGeometry x="1950" y="171.91" width="80" height="50" as="geometry" />
        </mxCell>
        <mxCell id="hu-6dLjI5PSRS7n1T90g-72" value="Color" style="ellipse;whiteSpace=wrap;html=1;" parent="1" vertex="1">
          <mxGeometry x="1540" y="204.91" width="100" height="45" as="geometry" />
        </mxCell>
        <mxCell id="hu-6dLjI5PSRS7n1T90g-73" value="" style="endArrow=none;html=1;rounded=0;entryX=0;entryY=1;entryDx=0;entryDy=0;exitX=0.75;exitY=0;exitDx=0;exitDy=0;" parent="1" source="hu-6dLjI5PSRS7n1T90g-64" target="hu-6dLjI5PSRS7n1T90g-69" edge="1">
          <mxGeometry width="50" height="50" relative="1" as="geometry">
            <mxPoint x="1740" y="206.91" as="sourcePoint" />
            <mxPoint x="1790" y="156.91" as="targetPoint" />
          </mxGeometry>
        </mxCell>
        <mxCell id="hu-6dLjI5PSRS7n1T90g-74" value="" style="endArrow=none;html=1;rounded=0;entryX=0.032;entryY=0.766;entryDx=0;entryDy=0;entryPerimeter=0;exitX=1;exitY=0;exitDx=0;exitDy=0;" parent="1" source="hu-6dLjI5PSRS7n1T90g-64" target="hu-6dLjI5PSRS7n1T90g-70" edge="1">
          <mxGeometry width="50" height="50" relative="1" as="geometry">
            <mxPoint x="1850" y="146.91" as="sourcePoint" />
            <mxPoint x="1882" y="59.90999999999999" as="targetPoint" />
          </mxGeometry>
        </mxCell>
        <mxCell id="hu-6dLjI5PSRS7n1T90g-75" value="" style="endArrow=none;html=1;rounded=0;entryX=-0.029;entryY=0.375;entryDx=0;entryDy=0;entryPerimeter=0;exitX=1;exitY=0.25;exitDx=0;exitDy=0;" parent="1" source="hu-6dLjI5PSRS7n1T90g-64" target="hu-6dLjI5PSRS7n1T90g-71" edge="1">
          <mxGeometry width="50" height="50" relative="1" as="geometry">
            <mxPoint x="1850" y="166.91" as="sourcePoint" />
            <mxPoint x="1892" y="69.91" as="targetPoint" />
          </mxGeometry>
        </mxCell>
        <mxCell id="hu-6dLjI5PSRS7n1T90g-76" value="" style="endArrow=none;html=1;rounded=0;entryX=0.5;entryY=1;entryDx=0;entryDy=0;" parent="1" source="hu-6dLjI5PSRS7n1T90g-64" target="hu-6dLjI5PSRS7n1T90g-67" edge="1">
          <mxGeometry width="50" height="50" relative="1" as="geometry">
            <mxPoint x="1800" y="126.91" as="sourcePoint" />
            <mxPoint x="1902" y="79.91" as="targetPoint" />
          </mxGeometry>
        </mxCell>
        <mxCell id="hu-6dLjI5PSRS7n1T90g-78" value="" style="endArrow=none;html=1;rounded=0;entryX=1;entryY=1;entryDx=0;entryDy=0;exitX=0;exitY=0;exitDx=0;exitDy=0;" parent="1" source="hu-6dLjI5PSRS7n1T90g-64" target="hu-6dLjI5PSRS7n1T90g-65" edge="1">
          <mxGeometry width="50" height="50" relative="1" as="geometry">
            <mxPoint x="1720" y="136.91" as="sourcePoint" />
            <mxPoint x="1922" y="99.91" as="targetPoint" />
          </mxGeometry>
        </mxCell>
        <mxCell id="hu-6dLjI5PSRS7n1T90g-79" value="" style="endArrow=none;html=1;rounded=0;entryX=1;entryY=0.5;entryDx=0;entryDy=0;exitX=0;exitY=0.25;exitDx=0;exitDy=0;" parent="1" source="hu-6dLjI5PSRS7n1T90g-64" target="hu-6dLjI5PSRS7n1T90g-68" edge="1">
          <mxGeometry width="50" height="50" relative="1" as="geometry">
            <mxPoint x="1880" y="206.91" as="sourcePoint" />
            <mxPoint x="1932" y="109.91" as="targetPoint" />
          </mxGeometry>
        </mxCell>
        <mxCell id="hu-6dLjI5PSRS7n1T90g-80" value="" style="endArrow=none;html=1;rounded=0;entryX=1;entryY=0;entryDx=0;entryDy=0;exitX=0;exitY=0.5;exitDx=0;exitDy=0;" parent="1" source="hu-6dLjI5PSRS7n1T90g-64" target="hu-6dLjI5PSRS7n1T90g-72" edge="1">
          <mxGeometry width="50" height="50" relative="1" as="geometry">
            <mxPoint x="1890" y="216.91" as="sourcePoint" />
            <mxPoint x="1942" y="119.91" as="targetPoint" />
          </mxGeometry>
        </mxCell>
        <mxCell id="hu-6dLjI5PSRS7n1T90g-202" value="Total_sales" style="ellipse;whiteSpace=wrap;html=1;" parent="1" vertex="1">
          <mxGeometry x="702.5" y="320" width="110" height="60" as="geometry" />
        </mxCell>
        <mxCell id="hu-6dLjI5PSRS7n1T90g-203" value="" style="endArrow=none;html=1;rounded=0;entryX=1;entryY=0;entryDx=0;entryDy=0;exitX=0.25;exitY=1;exitDx=0;exitDy=0;" parent="1" source="hu-6dLjI5PSRS7n1T90g-30" target="hu-6dLjI5PSRS7n1T90g-202" edge="1">
          <mxGeometry width="50" height="50" relative="1" as="geometry">
            <mxPoint x="795" y="338.09" as="sourcePoint" />
            <mxPoint x="1017" y="241.09" as="targetPoint" />
          </mxGeometry>
        </mxCell>
        <mxCell id="hu-6dLjI5PSRS7n1T90g-204" value="Status" style="ellipse;whiteSpace=wrap;html=1;" parent="1" vertex="1">
          <mxGeometry x="1560" y="254.91" width="95" height="50" as="geometry" />
        </mxCell>
        <mxCell id="hu-6dLjI5PSRS7n1T90g-205" value="" style="endArrow=none;html=1;rounded=0;entryX=1;entryY=0;entryDx=0;entryDy=0;exitX=0;exitY=0.75;exitDx=0;exitDy=0;" parent="1" source="hu-6dLjI5PSRS7n1T90g-64" target="hu-6dLjI5PSRS7n1T90g-204" edge="1">
          <mxGeometry width="50" height="50" relative="1" as="geometry">
            <mxPoint x="1710" y="291.91" as="sourcePoint" />
            <mxPoint x="1932" y="194.91" as="targetPoint" />
          </mxGeometry>
        </mxCell>
        <mxCell id="hu-6dLjI5PSRS7n1T90g-207" value="" style="endArrow=none;html=1;rounded=0;exitX=1;exitY=0.75;exitDx=0;exitDy=0;entryX=0;entryY=0.5;entryDx=0;entryDy=0;edgeStyle=orthogonalEdgeStyle;" parent="1" source="hu-6dLjI5PSRS7n1T90g-64" target="CsSzCPbxo0hBxs77Tv7x-54" edge="1">
          <mxGeometry width="50" height="50" relative="1" as="geometry">
            <mxPoint x="1850" y="256.91" as="sourcePoint" />
            <mxPoint x="376.05263157894734" y="460" as="targetPoint" />
            <Array as="points">
              <mxPoint x="1880" y="232" />
              <mxPoint x="1880" y="290" />
              <mxPoint x="2140" y="290" />
              <mxPoint x="2140" y="20" />
              <mxPoint x="240" y="20" />
              <mxPoint x="240" y="490" />
            </Array>
          </mxGeometry>
        </mxCell>
        <mxCell id="DfmCjdgMH8wRzvkq9XMf-18" value="1" style="edgeLabel;html=1;align=center;verticalAlign=middle;resizable=0;points=[];" vertex="1" connectable="0" parent="hu-6dLjI5PSRS7n1T90g-207">
          <mxGeometry x="-0.0842" y="-7" relative="1" as="geometry">
            <mxPoint as="offset" />
          </mxGeometry>
        </mxCell>
        <mxCell id="hu-6dLjI5PSRS7n1T90g-208" value="Category_name" style="ellipse;whiteSpace=wrap;html=1;" parent="1" vertex="1">
          <mxGeometry x="1960" y="223.09" width="100" height="45" as="geometry" />
        </mxCell>
        <mxCell id="hu-6dLjI5PSRS7n1T90g-209" value="" style="endArrow=none;html=1;rounded=0;exitX=1;exitY=0.5;exitDx=0;exitDy=0;" parent="1" source="hu-6dLjI5PSRS7n1T90g-64" target="hu-6dLjI5PSRS7n1T90g-208" edge="1">
          <mxGeometry width="50" height="50" relative="1" as="geometry">
            <mxPoint x="1860" y="221.91" as="sourcePoint" />
            <mxPoint x="1937.1" y="248.785" as="targetPoint" />
          </mxGeometry>
        </mxCell>
        <mxCell id="hu-6dLjI5PSRS7n1T90g-227" value="Pickup_location" style="rounded=0;whiteSpace=wrap;html=1;" parent="1" vertex="1">
          <mxGeometry x="475" y="1375" width="120" height="60" as="geometry" />
        </mxCell>
        <mxCell id="hu-6dLjI5PSRS7n1T90g-228" value="&lt;b&gt;&lt;u&gt;PL_ID&lt;/u&gt;&lt;/b&gt;" style="ellipse;whiteSpace=wrap;html=1;fillColor=#fff2cc;strokeColor=#d6b656;" parent="1" vertex="1">
          <mxGeometry x="360" y="1285" width="80" height="50" as="geometry" />
        </mxCell>
        <mxCell id="hu-6dLjI5PSRS7n1T90g-229" value="Location_name" style="ellipse;whiteSpace=wrap;html=1;" parent="1" vertex="1">
          <mxGeometry x="385" y="1225" width="100" height="50" as="geometry" />
        </mxCell>
        <mxCell id="hu-6dLjI5PSRS7n1T90g-230" value="Address" style="ellipse;whiteSpace=wrap;html=1;" parent="1" vertex="1">
          <mxGeometry x="495" y="1215" width="80" height="50" as="geometry" />
        </mxCell>
        <mxCell id="hu-6dLjI5PSRS7n1T90g-233" value="Time_slots" style="ellipse;whiteSpace=wrap;html=1;" parent="1" vertex="1">
          <mxGeometry x="595" y="1275" width="90" height="60" as="geometry" />
        </mxCell>
        <mxCell id="hu-6dLjI5PSRS7n1T90g-237" value="" style="endArrow=none;html=1;rounded=0;entryX=0.032;entryY=0.766;entryDx=0;entryDy=0;entryPerimeter=0;exitX=0.75;exitY=0;exitDx=0;exitDy=0;" parent="1" source="hu-6dLjI5PSRS7n1T90g-227" target="hu-6dLjI5PSRS7n1T90g-233" edge="1">
          <mxGeometry width="50" height="50" relative="1" as="geometry">
            <mxPoint x="560" y="1370" as="sourcePoint" />
            <mxPoint x="637" y="1248" as="targetPoint" />
          </mxGeometry>
        </mxCell>
        <mxCell id="hu-6dLjI5PSRS7n1T90g-239" value="" style="endArrow=none;html=1;rounded=0;entryX=0.5;entryY=1;entryDx=0;entryDy=0;" parent="1" source="hu-6dLjI5PSRS7n1T90g-227" target="hu-6dLjI5PSRS7n1T90g-230" edge="1">
          <mxGeometry width="50" height="50" relative="1" as="geometry">
            <mxPoint x="555" y="1315" as="sourcePoint" />
            <mxPoint x="657" y="1268" as="targetPoint" />
          </mxGeometry>
        </mxCell>
        <mxCell id="hu-6dLjI5PSRS7n1T90g-240" value="" style="endArrow=none;html=1;rounded=0;entryX=1;entryY=1;entryDx=0;entryDy=0;exitX=0.25;exitY=0;exitDx=0;exitDy=0;" parent="1" source="hu-6dLjI5PSRS7n1T90g-227" target="hu-6dLjI5PSRS7n1T90g-229" edge="1">
          <mxGeometry width="50" height="50" relative="1" as="geometry">
            <mxPoint x="615" y="1375" as="sourcePoint" />
            <mxPoint x="667" y="1278" as="targetPoint" />
          </mxGeometry>
        </mxCell>
        <mxCell id="hu-6dLjI5PSRS7n1T90g-241" value="" style="endArrow=none;html=1;rounded=0;exitX=0;exitY=0;exitDx=0;exitDy=0;entryX=0.67;entryY=0.945;entryDx=0;entryDy=0;entryPerimeter=0;" parent="1" source="hu-6dLjI5PSRS7n1T90g-227" target="hu-6dLjI5PSRS7n1T90g-228" edge="1">
          <mxGeometry width="50" height="50" relative="1" as="geometry">
            <mxPoint x="475" y="1325" as="sourcePoint" />
            <mxPoint x="393" y="1303" as="targetPoint" />
          </mxGeometry>
        </mxCell>
        <mxCell id="hu-6dLjI5PSRS7n1T90g-244" value="City" style="ellipse;whiteSpace=wrap;html=1;" parent="1" vertex="1">
          <mxGeometry x="405" y="1155" width="80" height="50" as="geometry" />
        </mxCell>
        <mxCell id="hu-6dLjI5PSRS7n1T90g-245" value="Block" style="ellipse;whiteSpace=wrap;html=1;" parent="1" vertex="1">
          <mxGeometry x="485" y="1130" width="80" height="50" as="geometry" />
        </mxCell>
        <mxCell id="hu-6dLjI5PSRS7n1T90g-246" value="Street" style="ellipse;whiteSpace=wrap;html=1;" parent="1" vertex="1">
          <mxGeometry x="585" y="1145" width="80" height="50" as="geometry" />
        </mxCell>
        <mxCell id="hu-6dLjI5PSRS7n1T90g-248" value="" style="endArrow=none;html=1;rounded=0;exitX=0.973;exitY=0.307;exitDx=0;exitDy=0;entryX=0;entryY=1;entryDx=0;entryDy=0;exitPerimeter=0;" parent="1" source="hu-6dLjI5PSRS7n1T90g-230" target="hu-6dLjI5PSRS7n1T90g-246" edge="1">
          <mxGeometry width="50" height="50" relative="1" as="geometry">
            <mxPoint x="575" y="1385" as="sourcePoint" />
            <mxPoint x="607" y="1288" as="targetPoint" />
          </mxGeometry>
        </mxCell>
        <mxCell id="hu-6dLjI5PSRS7n1T90g-249" value="" style="endArrow=none;html=1;rounded=0;exitX=0.5;exitY=0;exitDx=0;exitDy=0;entryX=0.565;entryY=1.018;entryDx=0;entryDy=0;entryPerimeter=0;" parent="1" source="hu-6dLjI5PSRS7n1T90g-230" edge="1">
          <mxGeometry width="50" height="50" relative="1" as="geometry">
            <mxPoint x="583" y="1240" as="sourcePoint" />
            <mxPoint x="530.1999999999994" y="1185.8999999999996" as="targetPoint" />
          </mxGeometry>
        </mxCell>
        <mxCell id="hu-6dLjI5PSRS7n1T90g-250" value="" style="endArrow=none;html=1;rounded=0;entryX=0.768;entryY=0.876;entryDx=0;entryDy=0;entryPerimeter=0;exitX=0;exitY=0;exitDx=0;exitDy=0;" parent="1" source="hu-6dLjI5PSRS7n1T90g-230" target="hu-6dLjI5PSRS7n1T90g-244" edge="1">
          <mxGeometry width="50" height="50" relative="1" as="geometry">
            <mxPoint x="545" y="1225" as="sourcePoint" />
            <mxPoint x="540" y="1196" as="targetPoint" />
          </mxGeometry>
        </mxCell>
        <mxCell id="hu-6dLjI5PSRS7n1T90g-261" value="Total_amount" style="ellipse;whiteSpace=wrap;html=1;" parent="1" vertex="1">
          <mxGeometry x="843" y="900" width="80" height="50" as="geometry" />
        </mxCell>
        <mxCell id="hu-6dLjI5PSRS7n1T90g-266" value="" style="endArrow=none;html=1;rounded=0;entryX=0;entryY=1;entryDx=0;entryDy=0;exitX=0.727;exitY=0.127;exitDx=0;exitDy=0;exitPerimeter=0;" parent="1" source="CsSzCPbxo0hBxs77Tv7x-92" target="hu-6dLjI5PSRS7n1T90g-263" edge="1">
          <mxGeometry width="50" height="50" relative="1" as="geometry">
            <mxPoint x="1072.5000000000005" y="1005" as="sourcePoint" />
            <mxPoint x="1022.5" y="832.5" as="targetPoint" />
          </mxGeometry>
        </mxCell>
        <mxCell id="hu-6dLjI5PSRS7n1T90g-269" value="" style="endArrow=none;html=1;rounded=0;entryX=0.5;entryY=1;entryDx=0;entryDy=0;exitX=0.42;exitY=0.057;exitDx=0;exitDy=0;exitPerimeter=0;" parent="1" source="CsSzCPbxo0hBxs77Tv7x-92" target="hu-6dLjI5PSRS7n1T90g-261" edge="1">
          <mxGeometry width="50" height="50" relative="1" as="geometry">
            <mxPoint x="880" y="1010" as="sourcePoint" />
            <mxPoint x="1134.5" y="755.5" as="targetPoint" />
          </mxGeometry>
        </mxCell>
        <mxCell id="hu-6dLjI5PSRS7n1T90g-271" value="" style="endArrow=none;html=1;rounded=0;entryX=1;entryY=1;entryDx=0;entryDy=0;exitX=0.163;exitY=0.036;exitDx=0;exitDy=0;exitPerimeter=0;" parent="1" source="CsSzCPbxo0hBxs77Tv7x-92" target="hu-6dLjI5PSRS7n1T90g-259" edge="1">
          <mxGeometry width="50" height="50" relative="1" as="geometry">
            <mxPoint x="983" y="1005" as="sourcePoint" />
            <mxPoint x="1154.5" y="775.5" as="targetPoint" />
          </mxGeometry>
        </mxCell>
        <mxCell id="hu-6dLjI5PSRS7n1T90g-292" value="Sells" style="shape=rhombus;perimeter=rhombusPerimeter;whiteSpace=wrap;html=1;align=center;" parent="1" vertex="1">
          <mxGeometry x="1340" y="470" width="120" height="60" as="geometry" />
        </mxCell>
        <mxCell id="hu-6dLjI5PSRS7n1T90g-302" value="Review" style="rounded=0;whiteSpace=wrap;html=1;" parent="1" vertex="1">
          <mxGeometry x="60" y="1000" width="120" height="60" as="geometry" />
        </mxCell>
        <mxCell id="hu-6dLjI5PSRS7n1T90g-303" value="&lt;b&gt;&lt;u&gt;ReviewID&lt;/u&gt;&lt;/b&gt;" style="ellipse;whiteSpace=wrap;html=1;fillColor=#fff2cc;strokeColor=#d6b656;" parent="1" vertex="1">
          <mxGeometry x="-10" y="895" width="80" height="50" as="geometry" />
        </mxCell>
        <mxCell id="hu-6dLjI5PSRS7n1T90g-306" value="Review_date" style="ellipse;whiteSpace=wrap;html=1;" parent="1" vertex="1">
          <mxGeometry x="-80" y="950" width="80" height="50" as="geometry" />
        </mxCell>
        <mxCell id="hu-6dLjI5PSRS7n1T90g-307" value="Rating" style="ellipse;whiteSpace=wrap;html=1;" parent="1" vertex="1">
          <mxGeometry x="100" y="875" width="80" height="50" as="geometry" />
        </mxCell>
        <mxCell id="hu-6dLjI5PSRS7n1T90g-308" value="Comment" style="ellipse;whiteSpace=wrap;html=1;" parent="1" vertex="1">
          <mxGeometry x="240" y="915" width="90" height="60" as="geometry" />
        </mxCell>
        <mxCell id="hu-6dLjI5PSRS7n1T90g-310" value="" style="endArrow=none;html=1;rounded=0;entryX=0;entryY=1;entryDx=0;entryDy=0;exitX=0.5;exitY=0;exitDx=0;exitDy=0;" parent="1" source="hu-6dLjI5PSRS7n1T90g-302" target="hu-6dLjI5PSRS7n1T90g-307" edge="1">
          <mxGeometry width="50" height="50" relative="1" as="geometry">
            <mxPoint x="80" y="1035" as="sourcePoint" />
            <mxPoint x="130" y="985" as="targetPoint" />
          </mxGeometry>
        </mxCell>
        <mxCell id="hu-6dLjI5PSRS7n1T90g-311" value="" style="endArrow=none;html=1;rounded=0;entryX=0.032;entryY=0.766;entryDx=0;entryDy=0;entryPerimeter=0;exitX=1;exitY=0;exitDx=0;exitDy=0;" parent="1" source="hu-6dLjI5PSRS7n1T90g-302" target="hu-6dLjI5PSRS7n1T90g-308" edge="1">
          <mxGeometry width="50" height="50" relative="1" as="geometry">
            <mxPoint x="190" y="975" as="sourcePoint" />
            <mxPoint x="222" y="888" as="targetPoint" />
          </mxGeometry>
        </mxCell>
        <mxCell id="hu-6dLjI5PSRS7n1T90g-315" value="" style="endArrow=none;html=1;rounded=0;entryX=1;entryY=1;entryDx=0;entryDy=0;exitX=0.25;exitY=0;exitDx=0;exitDy=0;" parent="1" source="hu-6dLjI5PSRS7n1T90g-302" target="hu-6dLjI5PSRS7n1T90g-303" edge="1">
          <mxGeometry width="50" height="50" relative="1" as="geometry">
            <mxPoint x="60" y="1015" as="sourcePoint" />
            <mxPoint x="262" y="928" as="targetPoint" />
          </mxGeometry>
        </mxCell>
        <mxCell id="hu-6dLjI5PSRS7n1T90g-316" value="" style="endArrow=none;html=1;rounded=0;entryX=1;entryY=0.5;entryDx=0;entryDy=0;" parent="1" target="hu-6dLjI5PSRS7n1T90g-306" edge="1">
          <mxGeometry width="50" height="50" relative="1" as="geometry">
            <mxPoint x="60" y="1020" as="sourcePoint" />
            <mxPoint x="272" y="938" as="targetPoint" />
          </mxGeometry>
        </mxCell>
        <mxCell id="hu-6dLjI5PSRS7n1T90g-317" value="Leaves" style="shape=rhombus;perimeter=rhombusPerimeter;whiteSpace=wrap;html=1;align=center;" parent="1" vertex="1">
          <mxGeometry x="250" y="805" width="120" height="60" as="geometry" />
        </mxCell>
        <mxCell id="hu-6dLjI5PSRS7n1T90g-318" value="" style="endArrow=none;html=1;rounded=0;exitX=0;exitY=0.5;exitDx=0;exitDy=0;entryX=0.75;entryY=0;entryDx=0;entryDy=0;" parent="1" source="hu-6dLjI5PSRS7n1T90g-317" target="hu-6dLjI5PSRS7n1T90g-302" edge="1">
          <mxGeometry width="50" height="50" relative="1" as="geometry">
            <mxPoint x="-200" y="670" as="sourcePoint" />
            <mxPoint x="150" y="1230" as="targetPoint" />
          </mxGeometry>
        </mxCell>
        <mxCell id="hu-6dLjI5PSRS7n1T90g-321" value="m" style="edgeLabel;html=1;align=center;verticalAlign=middle;resizable=0;points=[];" parent="hu-6dLjI5PSRS7n1T90g-318" vertex="1" connectable="0">
          <mxGeometry x="-0.3023" y="-3" relative="1" as="geometry">
            <mxPoint as="offset" />
          </mxGeometry>
        </mxCell>
        <mxCell id="96jUrJJoZ8PWwtf2zBIY-5" value="&lt;h3&gt;Loacation&lt;/h3&gt;" style="rounded=0;whiteSpace=wrap;html=1;" parent="1" vertex="1">
          <mxGeometry x="250" y="586.81" width="120" height="60" as="geometry" />
        </mxCell>
        <mxCell id="CsSzCPbxo0hBxs77Tv7x-10" value="Rents" style="shape=rhombus;perimeter=rhombusPerimeter;whiteSpace=wrap;html=1;align=center;" parent="1" vertex="1">
          <mxGeometry x="1340" y="390" width="120" height="60" as="geometry" />
        </mxCell>
        <mxCell id="CsSzCPbxo0hBxs77Tv7x-27" value="" style="shape=link;html=1;rounded=0;entryX=1;entryY=0.5;entryDx=0;entryDy=0;exitX=0.5;exitY=1;exitDx=0;exitDy=0;" parent="1" source="hu-6dLjI5PSRS7n1T90g-64" target="CsSzCPbxo0hBxs77Tv7x-10" edge="1">
          <mxGeometry relative="1" as="geometry">
            <mxPoint x="1290" y="450" as="sourcePoint" />
            <mxPoint x="1450" y="450" as="targetPoint" />
          </mxGeometry>
        </mxCell>
        <mxCell id="CsSzCPbxo0hBxs77Tv7x-30" value="&lt;h3&gt;N&lt;/h3&gt;" style="edgeLabel;html=1;align=center;verticalAlign=middle;resizable=0;points=[];" parent="CsSzCPbxo0hBxs77Tv7x-27" vertex="1" connectable="0">
          <mxGeometry x="0.3041" y="-3" relative="1" as="geometry">
            <mxPoint as="offset" />
          </mxGeometry>
        </mxCell>
        <mxCell id="CsSzCPbxo0hBxs77Tv7x-29" value="" style="shape=link;html=1;rounded=0;entryX=1;entryY=0.5;entryDx=0;entryDy=0;exitX=0.75;exitY=1;exitDx=0;exitDy=0;" parent="1" source="hu-6dLjI5PSRS7n1T90g-64" target="hu-6dLjI5PSRS7n1T90g-292" edge="1">
          <mxGeometry relative="1" as="geometry">
            <mxPoint x="1760" y="285" as="sourcePoint" />
            <mxPoint x="1470" y="420" as="targetPoint" />
          </mxGeometry>
        </mxCell>
        <mxCell id="CsSzCPbxo0hBxs77Tv7x-31" value="&lt;h3&gt;N&lt;/h3&gt;" style="edgeLabel;html=1;align=center;verticalAlign=middle;resizable=0;points=[];" parent="CsSzCPbxo0hBxs77Tv7x-29" vertex="1" connectable="0">
          <mxGeometry x="0.0381" relative="1" as="geometry">
            <mxPoint as="offset" />
          </mxGeometry>
        </mxCell>
        <mxCell id="CsSzCPbxo0hBxs77Tv7x-32" value="" style="endArrow=none;html=1;rounded=0;exitX=1;exitY=1;exitDx=0;exitDy=0;entryX=0;entryY=0.5;entryDx=0;entryDy=0;" parent="1" source="hu-6dLjI5PSRS7n1T90g-30" target="CsSzCPbxo0hBxs77Tv7x-10" edge="1">
          <mxGeometry width="50" height="50" relative="1" as="geometry">
            <mxPoint x="1100" y="268" as="sourcePoint" />
            <mxPoint x="1174" y="303" as="targetPoint" />
            <Array as="points">
              <mxPoint x="1160" y="310" />
            </Array>
          </mxGeometry>
        </mxCell>
        <mxCell id="CsSzCPbxo0hBxs77Tv7x-33" value="&lt;h3&gt;1&lt;/h3&gt;" style="edgeLabel;html=1;align=center;verticalAlign=middle;resizable=0;points=[];" parent="CsSzCPbxo0hBxs77Tv7x-32" vertex="1" connectable="0">
          <mxGeometry x="0.08" y="-1" relative="1" as="geometry">
            <mxPoint as="offset" />
          </mxGeometry>
        </mxCell>
        <mxCell id="CsSzCPbxo0hBxs77Tv7x-34" value="" style="endArrow=none;html=1;rounded=0;exitX=0.75;exitY=1;exitDx=0;exitDy=0;entryX=0;entryY=0.5;entryDx=0;entryDy=0;" parent="1" source="hu-6dLjI5PSRS7n1T90g-30" target="hu-6dLjI5PSRS7n1T90g-292" edge="1">
          <mxGeometry width="50" height="50" relative="1" as="geometry">
            <mxPoint x="1062" y="297" as="sourcePoint" />
            <mxPoint x="1350" y="420" as="targetPoint" />
          </mxGeometry>
        </mxCell>
        <mxCell id="CsSzCPbxo0hBxs77Tv7x-35" value="&lt;h3&gt;1&lt;/h3&gt;" style="edgeLabel;html=1;align=center;verticalAlign=middle;resizable=0;points=[];" parent="CsSzCPbxo0hBxs77Tv7x-34" vertex="1" connectable="0">
          <mxGeometry x="0.08" y="-1" relative="1" as="geometry">
            <mxPoint as="offset" />
          </mxGeometry>
        </mxCell>
        <mxCell id="CsSzCPbxo0hBxs77Tv7x-36" value="Purchase_request" style="shape=rhombus;double=1;perimeter=rhombusPerimeter;whiteSpace=wrap;html=1;align=center;" parent="1" vertex="1">
          <mxGeometry x="1350" y="650" width="150" height="74.31" as="geometry" />
        </mxCell>
        <mxCell id="CsSzCPbxo0hBxs77Tv7x-41" value="" style="endArrow=none;html=1;rounded=0;exitX=0;exitY=0.5;exitDx=0;exitDy=0;entryX=1;entryY=1;entryDx=0;entryDy=0;" parent="1" source="CsSzCPbxo0hBxs77Tv7x-36" target="hu-6dLjI5PSRS7n1T90g-1" edge="1">
          <mxGeometry relative="1" as="geometry">
            <mxPoint x="1360" y="203" as="sourcePoint" />
            <mxPoint x="960" y="670" as="targetPoint" />
          </mxGeometry>
        </mxCell>
        <mxCell id="CsSzCPbxo0hBxs77Tv7x-83" value="1" style="edgeLabel;html=1;align=center;verticalAlign=middle;resizable=0;points=[];" parent="CsSzCPbxo0hBxs77Tv7x-41" vertex="1" connectable="0">
          <mxGeometry x="-0.6042" y="-1" relative="1" as="geometry">
            <mxPoint as="offset" />
          </mxGeometry>
        </mxCell>
        <mxCell id="CsSzCPbxo0hBxs77Tv7x-43" value="Rent" style="shape=rhombus;double=1;perimeter=rhombusPerimeter;whiteSpace=wrap;html=1;align=center;" parent="1" vertex="1">
          <mxGeometry x="1350" y="800" width="120" height="60" as="geometry" />
        </mxCell>
        <mxCell id="CsSzCPbxo0hBxs77Tv7x-46" value="" style="endArrow=none;html=1;rounded=0;exitX=0;exitY=0.5;exitDx=0;exitDy=0;entryX=0.75;entryY=1;entryDx=0;entryDy=0;" parent="1" source="CsSzCPbxo0hBxs77Tv7x-43" target="hu-6dLjI5PSRS7n1T90g-1" edge="1">
          <mxGeometry relative="1" as="geometry">
            <mxPoint x="1370" y="213" as="sourcePoint" />
            <mxPoint x="1040" y="290" as="targetPoint" />
          </mxGeometry>
        </mxCell>
        <mxCell id="CsSzCPbxo0hBxs77Tv7x-84" value="1" style="edgeLabel;html=1;align=center;verticalAlign=middle;resizable=0;points=[];" parent="CsSzCPbxo0hBxs77Tv7x-46" vertex="1" connectable="0">
          <mxGeometry x="-0.5801" y="2" relative="1" as="geometry">
            <mxPoint as="offset" />
          </mxGeometry>
        </mxCell>
        <mxCell id="CsSzCPbxo0hBxs77Tv7x-50" value="" style="endArrow=none;html=1;rounded=0;exitX=1;exitY=0;exitDx=0;exitDy=0;entryX=0;entryY=1;entryDx=0;entryDy=0;" parent="1" source="CsSzCPbxo0hBxs77Tv7x-36" target="CsSzCPbxo0hBxs77Tv7x-52" edge="1">
          <mxGeometry relative="1" as="geometry">
            <mxPoint x="1370" y="570" as="sourcePoint" />
            <mxPoint x="1479" y="627" as="targetPoint" />
          </mxGeometry>
        </mxCell>
        <mxCell id="CsSzCPbxo0hBxs77Tv7x-51" value="" style="endArrow=none;html=1;rounded=0;exitX=0.814;exitY=0.303;exitDx=0;exitDy=0;exitPerimeter=0;entryX=0;entryY=1;entryDx=0;entryDy=0;" parent="1" source="CsSzCPbxo0hBxs77Tv7x-43" target="CsSzCPbxo0hBxs77Tv7x-53" edge="1">
          <mxGeometry relative="1" as="geometry">
            <mxPoint x="1440" y="660" as="sourcePoint" />
            <mxPoint x="1472" y="743" as="targetPoint" />
          </mxGeometry>
        </mxCell>
        <mxCell id="CsSzCPbxo0hBxs77Tv7x-52" value="QTY&lt;span style=&quot;color: rgba(0, 0, 0, 0); font-family: monospace; font-size: 0px; text-align: start; text-wrap-mode: nowrap;&quot;&gt;%3CmxGraphModel%3E%3Croot%3E%3CmxCell%20id%3D%220%22%2F%3E%3CmxCell%20id%3D%221%22%20parent%3D%220%22%2F%3E%3CmxCell%20id%3D%222%22%20value%3D%22%22%20style%3D%22endArrow%3Dnone%3Bhtml%3D1%3Brounded%3D0%3BexitX%3D1%3BexitY%3D0%3BexitDx%3D0%3BexitDy%3D0%3B%22%20edge%3D%221%22%20parent%3D%221%22%3E%3CmxGeometry%20relative%3D%221%22%20as%3D%22geometry%22%3E%3CmxPoint%20x%3D%221430%22%20y%3D%22650%22%20as%3D%22sourcePoint%22%2F%3E%3CmxPoint%20x%3D%221479%22%20y%3D%22627%22%20as%3D%22targetPoint%22%2F%3E%3C%2FmxGeometry%3E%3C%2FmxCell%3E%3C%2Froot%3E%3C%2FmxGraphModel%3E&lt;/span&gt;" style="ellipse;whiteSpace=wrap;html=1;align=center;" parent="1" vertex="1">
          <mxGeometry x="1420" y="595" width="70" height="40" as="geometry" />
        </mxCell>
        <mxCell id="CsSzCPbxo0hBxs77Tv7x-53" value="QTY&lt;span style=&quot;color: rgba(0, 0, 0, 0); font-family: monospace; font-size: 0px; text-align: start; text-wrap-mode: nowrap;&quot;&gt;%3CmxGraphModel%3E%3Croot%3E%3CmxCell%20id%3D%220%22%2F%3E%3CmxCell%20id%3D%221%22%20parent%3D%220%22%2F%3E%3CmxCell%20id%3D%222%22%20value%3D%22%22%20style%3D%22endArrow%3Dnone%3Bhtml%3D1%3Brounded%3D0%3BexitX%3D1%3BexitY%3D0%3BexitDx%3D0%3BexitDy%3D0%3B%22%20edge%3D%221%22%20parent%3D%221%22%3E%3CmxGeometry%20relative%3D%221%22%20as%3D%22geometry%22%3E%3CmxPoint%20x%3D%221430%22%20y%3D%22650%22%20as%3D%22sourcePoint%22%2F%3E%3CmxPoint%20x%3D%221479%22%20y%3D%22627%22%20as%3D%22targetPoint%22%2F%3E%3C%2FmxGeometry%3E%3C%2FmxCell%3E%3C%2Froot%3E%3C%2FmxGraphModel%3E&lt;/span&gt;" style="ellipse;whiteSpace=wrap;html=1;align=center;" parent="1" vertex="1">
          <mxGeometry x="1430" y="730" width="70" height="40" as="geometry" />
        </mxCell>
        <mxCell id="CsSzCPbxo0hBxs77Tv7x-54" value="HAS" style="shape=rhombus;perimeter=rhombusPerimeter;whiteSpace=wrap;html=1;align=center;" parent="1" vertex="1">
          <mxGeometry x="250" y="460" width="120" height="60" as="geometry" />
        </mxCell>
        <mxCell id="CsSzCPbxo0hBxs77Tv7x-56" value="" style="endArrow=none;html=1;rounded=0;entryX=1;entryY=0.5;entryDx=0;entryDy=0;exitX=0;exitY=0.5;exitDx=0;exitDy=0;" parent="1" source="hu-6dLjI5PSRS7n1T90g-1" target="CsSzCPbxo0hBxs77Tv7x-54" edge="1">
          <mxGeometry width="50" height="50" relative="1" as="geometry">
            <mxPoint x="600" y="689" as="sourcePoint" />
            <mxPoint x="2058" y="599" as="targetPoint" />
          </mxGeometry>
        </mxCell>
        <mxCell id="DfmCjdgMH8wRzvkq9XMf-17" value="1" style="edgeLabel;html=1;align=center;verticalAlign=middle;resizable=0;points=[];" vertex="1" connectable="0" parent="CsSzCPbxo0hBxs77Tv7x-56">
          <mxGeometry x="0.0466" y="3" relative="1" as="geometry">
            <mxPoint as="offset" />
          </mxGeometry>
        </mxCell>
        <mxCell id="CsSzCPbxo0hBxs77Tv7x-57" value="" style="endArrow=none;html=1;rounded=0;entryX=0.5;entryY=1;entryDx=0;entryDy=0;exitX=0.5;exitY=0;exitDx=0;exitDy=0;" parent="1" source="96jUrJJoZ8PWwtf2zBIY-5" target="CsSzCPbxo0hBxs77Tv7x-54" edge="1">
          <mxGeometry width="50" height="50" relative="1" as="geometry">
            <mxPoint x="300" y="341.81" as="sourcePoint" />
            <mxPoint x="320" y="456.81" as="targetPoint" />
          </mxGeometry>
        </mxCell>
        <mxCell id="CsSzCPbxo0hBxs77Tv7x-59" value="1" style="edgeLabel;html=1;align=center;verticalAlign=middle;resizable=0;points=[];" parent="CsSzCPbxo0hBxs77Tv7x-57" vertex="1" connectable="0">
          <mxGeometry x="0.0159" y="-3" relative="1" as="geometry">
            <mxPoint as="offset" />
          </mxGeometry>
        </mxCell>
        <mxCell id="CsSzCPbxo0hBxs77Tv7x-62" value="" style="line;strokeWidth=1;rotatable=0;dashed=0;labelPosition=right;align=left;verticalAlign=middle;spacingTop=0;spacingLeft=6;points=[];portConstraint=eastwest;" parent="1" vertex="1">
          <mxGeometry x="2190" y="-30" width="60" height="10" as="geometry" />
        </mxCell>
        <mxCell id="CsSzCPbxo0hBxs77Tv7x-73" value="City" style="ellipse;whiteSpace=wrap;html=1;" parent="1" vertex="1">
          <mxGeometry x="350" y="696.81" width="80" height="50" as="geometry" />
        </mxCell>
        <mxCell id="CsSzCPbxo0hBxs77Tv7x-74" value="Block" style="ellipse;whiteSpace=wrap;html=1;" parent="1" vertex="1">
          <mxGeometry x="150" y="649.31" width="80" height="50" as="geometry" />
        </mxCell>
        <mxCell id="CsSzCPbxo0hBxs77Tv7x-75" value="Street" style="ellipse;whiteSpace=wrap;html=1;" parent="1" vertex="1">
          <mxGeometry x="440" y="646.81" width="80" height="50" as="geometry" />
        </mxCell>
        <mxCell id="CsSzCPbxo0hBxs77Tv7x-76" value="" style="endArrow=none;html=1;rounded=0;exitX=1;exitY=0.5;exitDx=0;exitDy=0;entryX=0.5;entryY=0;entryDx=0;entryDy=0;" parent="1" source="96jUrJJoZ8PWwtf2zBIY-5" target="CsSzCPbxo0hBxs77Tv7x-75" edge="1">
          <mxGeometry width="50" height="50" relative="1" as="geometry">
            <mxPoint x="-212.6300000000001" y="781.81" as="sourcePoint" />
            <mxPoint x="-178.6300000000001" y="839.81" as="targetPoint" />
          </mxGeometry>
        </mxCell>
        <mxCell id="CsSzCPbxo0hBxs77Tv7x-77" value="" style="endArrow=none;html=1;rounded=0;exitX=-0.019;exitY=0.625;exitDx=0;exitDy=0;exitPerimeter=0;" parent="1" source="96jUrJJoZ8PWwtf2zBIY-5" edge="1">
          <mxGeometry width="50" height="50" relative="1" as="geometry">
            <mxPoint x="-250.6300000000001" y="766.81" as="sourcePoint" />
            <mxPoint x="222" y="670" as="targetPoint" />
          </mxGeometry>
        </mxCell>
        <mxCell id="CsSzCPbxo0hBxs77Tv7x-78" value="" style="endArrow=none;html=1;rounded=0;entryX=0.5;entryY=0;entryDx=0;entryDy=0;exitX=0.75;exitY=1;exitDx=0;exitDy=0;" parent="1" source="96jUrJJoZ8PWwtf2zBIY-5" target="CsSzCPbxo0hBxs77Tv7x-73" edge="1">
          <mxGeometry width="50" height="50" relative="1" as="geometry">
            <mxPoint x="-278.6300000000001" y="773.81" as="sourcePoint" />
            <mxPoint x="-245.6300000000001" y="747.81" as="targetPoint" />
          </mxGeometry>
        </mxCell>
        <mxCell id="CsSzCPbxo0hBxs77Tv7x-80" value="Country" style="ellipse;whiteSpace=wrap;html=1;" parent="1" vertex="1">
          <mxGeometry x="230" y="696.81" width="80" height="50" as="geometry" />
        </mxCell>
        <mxCell id="CsSzCPbxo0hBxs77Tv7x-81" value="" style="endArrow=none;html=1;rounded=0;entryX=0.647;entryY=0.053;entryDx=0;entryDy=0;exitX=0.384;exitY=1.028;exitDx=0;exitDy=0;exitPerimeter=0;entryPerimeter=0;" parent="1" source="96jUrJJoZ8PWwtf2zBIY-5" target="CsSzCPbxo0hBxs77Tv7x-80" edge="1">
          <mxGeometry width="50" height="50" relative="1" as="geometry">
            <mxPoint x="350" y="656.81" as="sourcePoint" />
            <mxPoint x="400" y="706.81" as="targetPoint" />
          </mxGeometry>
        </mxCell>
        <mxCell id="hu-6dLjI5PSRS7n1T90g-259" value="&lt;b&gt;&lt;u&gt;INVOICE_ID&lt;/u&gt;&lt;/b&gt;" style="ellipse;whiteSpace=wrap;html=1;fillColor=#fff2cc;strokeColor=#d6b656;" parent="1" vertex="1">
          <mxGeometry x="763" y="920" width="80" height="50" as="geometry" />
        </mxCell>
        <mxCell id="CsSzCPbxo0hBxs77Tv7x-85" value="" style="endArrow=none;html=1;rounded=0;entryX=0.901;entryY=0.983;entryDx=0;entryDy=0;entryPerimeter=0;exitX=1;exitY=0.5;exitDx=0;exitDy=0;" parent="1" source="CsSzCPbxo0hBxs77Tv7x-36" target="hu-6dLjI5PSRS7n1T90g-64" edge="1">
          <mxGeometry relative="1" as="geometry">
            <mxPoint x="1360" y="500" as="sourcePoint" />
            <mxPoint x="1790" y="310" as="targetPoint" />
          </mxGeometry>
        </mxCell>
        <mxCell id="CsSzCPbxo0hBxs77Tv7x-86" value="M" style="edgeLabel;html=1;align=center;verticalAlign=middle;resizable=0;points=[];" parent="CsSzCPbxo0hBxs77Tv7x-85" vertex="1" connectable="0">
          <mxGeometry x="-0.1668" relative="1" as="geometry">
            <mxPoint as="offset" />
          </mxGeometry>
        </mxCell>
        <mxCell id="CsSzCPbxo0hBxs77Tv7x-87" value="" style="endArrow=none;html=1;rounded=0;entryX=0.914;entryY=0.996;entryDx=0;entryDy=0;entryPerimeter=0;exitX=1;exitY=0.5;exitDx=0;exitDy=0;" parent="1" source="CsSzCPbxo0hBxs77Tv7x-43" target="hu-6dLjI5PSRS7n1T90g-64" edge="1">
          <mxGeometry relative="1" as="geometry">
            <mxPoint x="1470" y="675" as="sourcePoint" />
            <mxPoint x="1808" y="284" as="targetPoint" />
          </mxGeometry>
        </mxCell>
        <mxCell id="CsSzCPbxo0hBxs77Tv7x-88" value="M" style="edgeLabel;html=1;align=center;verticalAlign=middle;resizable=0;points=[];" parent="CsSzCPbxo0hBxs77Tv7x-87" vertex="1" connectable="0">
          <mxGeometry x="-0.1668" relative="1" as="geometry">
            <mxPoint as="offset" />
          </mxGeometry>
        </mxCell>
        <mxCell id="CsSzCPbxo0hBxs77Tv7x-90" value="" style="endArrow=none;html=1;rounded=0;entryX=0;entryY=0.5;entryDx=0;entryDy=0;exitX=0.5;exitY=0;exitDx=0;exitDy=0;edgeStyle=orthogonalEdgeStyle;" parent="1" source="CsSzCPbxo0hBxs77Tv7x-54" target="hu-6dLjI5PSRS7n1T90g-30" edge="1">
          <mxGeometry relative="1" as="geometry">
            <mxPoint x="630" y="660" as="sourcePoint" />
            <mxPoint x="820" y="290" as="targetPoint" />
            <Array as="points">
              <mxPoint x="310" y="258" />
            </Array>
          </mxGeometry>
        </mxCell>
        <mxCell id="DfmCjdgMH8wRzvkq9XMf-16" value="1" style="edgeLabel;html=1;align=center;verticalAlign=middle;resizable=0;points=[];" vertex="1" connectable="0" parent="CsSzCPbxo0hBxs77Tv7x-90">
          <mxGeometry x="-0.0533" y="-4" relative="1" as="geometry">
            <mxPoint as="offset" />
          </mxGeometry>
        </mxCell>
        <mxCell id="CsSzCPbxo0hBxs77Tv7x-92" value="Invoice" style="shape=ext;margin=3;double=1;whiteSpace=wrap;html=1;align=center;" parent="1" vertex="1">
          <mxGeometry x="820.5" y="1015" width="142.5" height="60" as="geometry" />
        </mxCell>
        <mxCell id="CsSzCPbxo0hBxs77Tv7x-93" value="" style="endArrow=none;html=1;rounded=0;entryX=0.42;entryY=0.953;entryDx=0;entryDy=0;entryPerimeter=0;exitX=0.836;exitY=0.062;exitDx=0;exitDy=0;exitPerimeter=0;strokeWidth=3;" parent="1" source="CsSzCPbxo0hBxs77Tv7x-92" target="CsSzCPbxo0hBxs77Tv7x-36" edge="1">
          <mxGeometry relative="1" as="geometry">
            <mxPoint x="1130" y="950" as="sourcePoint" />
            <mxPoint x="1290" y="950" as="targetPoint" />
          </mxGeometry>
        </mxCell>
        <mxCell id="CsSzCPbxo0hBxs77Tv7x-95" value="&lt;h2&gt;n&lt;/h2&gt;" style="edgeLabel;html=1;align=center;verticalAlign=middle;resizable=0;points=[];" parent="CsSzCPbxo0hBxs77Tv7x-93" vertex="1" connectable="0">
          <mxGeometry x="-0.0894" y="1" relative="1" as="geometry">
            <mxPoint x="1" as="offset" />
          </mxGeometry>
        </mxCell>
        <mxCell id="CsSzCPbxo0hBxs77Tv7x-94" value="" style="endArrow=none;html=1;rounded=0;entryX=0.5;entryY=1;entryDx=0;entryDy=0;exitX=0.984;exitY=0.881;exitDx=0;exitDy=0;exitPerimeter=0;strokeWidth=3;" parent="1" source="CsSzCPbxo0hBxs77Tv7x-92" target="CsSzCPbxo0hBxs77Tv7x-43" edge="1">
          <mxGeometry relative="1" as="geometry">
            <mxPoint x="1130" y="950" as="sourcePoint" />
            <mxPoint x="1290" y="950" as="targetPoint" />
          </mxGeometry>
        </mxCell>
        <mxCell id="CsSzCPbxo0hBxs77Tv7x-96" value="&lt;h2&gt;n&lt;/h2&gt;" style="edgeLabel;html=1;align=center;verticalAlign=middle;resizable=0;points=[];" parent="CsSzCPbxo0hBxs77Tv7x-94" vertex="1" connectable="0">
          <mxGeometry x="0.3295" y="-2" relative="1" as="geometry">
            <mxPoint as="offset" />
          </mxGeometry>
        </mxCell>
        <mxCell id="CsSzCPbxo0hBxs77Tv7x-97" value="" style="endArrow=none;html=1;rounded=0;entryX=0.25;entryY=1;entryDx=0;entryDy=0;exitX=1;exitY=0.5;exitDx=0;exitDy=0;" parent="1" source="hu-6dLjI5PSRS7n1T90g-317" target="hu-6dLjI5PSRS7n1T90g-1" edge="1">
          <mxGeometry relative="1" as="geometry">
            <mxPoint x="550" y="560" as="sourcePoint" />
            <mxPoint x="710" y="560" as="targetPoint" />
          </mxGeometry>
        </mxCell>
        <mxCell id="CsSzCPbxo0hBxs77Tv7x-98" value="1" style="edgeLabel;html=1;align=center;verticalAlign=middle;resizable=0;points=[];" parent="CsSzCPbxo0hBxs77Tv7x-97" vertex="1" connectable="0">
          <mxGeometry x="-0.0873" y="1" relative="1" as="geometry">
            <mxPoint x="1" as="offset" />
          </mxGeometry>
        </mxCell>
        <mxCell id="CsSzCPbxo0hBxs77Tv7x-100" value="has" style="shape=rhombus;perimeter=rhombusPerimeter;whiteSpace=wrap;html=1;align=center;" parent="1" vertex="1">
          <mxGeometry x="455" y="970" width="120" height="60" as="geometry" />
        </mxCell>
        <mxCell id="CsSzCPbxo0hBxs77Tv7x-101" value="" style="endArrow=none;html=1;rounded=0;entryX=0.5;entryY=1;entryDx=0;entryDy=0;exitX=0.933;exitY=0.57;exitDx=0;exitDy=0;exitPerimeter=0;edgeStyle=orthogonalEdgeStyle;" parent="1" source="CsSzCPbxo0hBxs77Tv7x-100" target="hu-6dLjI5PSRS7n1T90g-30" edge="1">
          <mxGeometry relative="1" as="geometry">
            <mxPoint x="370" y="1040" as="sourcePoint" />
            <mxPoint x="530" y="1040" as="targetPoint" />
            <Array as="points">
              <mxPoint x="630" y="1004" />
              <mxPoint x="630" y="400" />
              <mxPoint x="863" y="400" />
            </Array>
          </mxGeometry>
        </mxCell>
        <mxCell id="CsSzCPbxo0hBxs77Tv7x-104" value="1" style="edgeLabel;html=1;align=center;verticalAlign=middle;resizable=0;points=[];" parent="CsSzCPbxo0hBxs77Tv7x-101" vertex="1" connectable="0">
          <mxGeometry x="0.0418" y="2" relative="1" as="geometry">
            <mxPoint as="offset" />
          </mxGeometry>
        </mxCell>
        <mxCell id="CsSzCPbxo0hBxs77Tv7x-102" value="" style="endArrow=none;html=1;rounded=0;entryX=0;entryY=0.5;entryDx=0;entryDy=0;exitX=1;exitY=0.5;exitDx=0;exitDy=0;" parent="1" source="hu-6dLjI5PSRS7n1T90g-302" target="CsSzCPbxo0hBxs77Tv7x-100" edge="1">
          <mxGeometry relative="1" as="geometry">
            <mxPoint x="370" y="1040" as="sourcePoint" />
            <mxPoint x="530" y="1040" as="targetPoint" />
          </mxGeometry>
        </mxCell>
        <mxCell id="DfmCjdgMH8wRzvkq9XMf-19" value="m" style="edgeLabel;html=1;align=center;verticalAlign=middle;resizable=0;points=[];" vertex="1" connectable="0" parent="CsSzCPbxo0hBxs77Tv7x-102">
          <mxGeometry x="0.1766" relative="1" as="geometry">
            <mxPoint as="offset" />
          </mxGeometry>
        </mxCell>
        <mxCell id="hu-6dLjI5PSRS7n1T90g-263" value="invoice_date" style="ellipse;whiteSpace=wrap;html=1;" parent="1" vertex="1">
          <mxGeometry x="923" y="935" width="80" height="50" as="geometry" />
        </mxCell>
        <mxCell id="CsSzCPbxo0hBxs77Tv7x-106" value="Assign" style="shape=rhombus;perimeter=rhombusPerimeter;whiteSpace=wrap;html=1;align=center;" parent="1" vertex="1">
          <mxGeometry x="785" y="1285" width="120" height="60" as="geometry" />
        </mxCell>
        <mxCell id="CsSzCPbxo0hBxs77Tv7x-107" value="" style="endArrow=none;html=1;rounded=0;entryX=0.5;entryY=0;entryDx=0;entryDy=0;exitX=0.157;exitY=1.061;exitDx=0;exitDy=0;exitPerimeter=0;" parent="1" source="CsSzCPbxo0hBxs77Tv7x-92" target="CsSzCPbxo0hBxs77Tv7x-106" edge="1">
          <mxGeometry relative="1" as="geometry">
            <mxPoint x="950" y="1030" as="sourcePoint" />
            <mxPoint x="1110" y="1030" as="targetPoint" />
          </mxGeometry>
        </mxCell>
        <mxCell id="CsSzCPbxo0hBxs77Tv7x-109" value="n" style="edgeLabel;html=1;align=center;verticalAlign=middle;resizable=0;points=[];" parent="CsSzCPbxo0hBxs77Tv7x-107" vertex="1" connectable="0">
          <mxGeometry x="0.0821" y="-3" relative="1" as="geometry">
            <mxPoint as="offset" />
          </mxGeometry>
        </mxCell>
        <mxCell id="CsSzCPbxo0hBxs77Tv7x-108" value="" style="endArrow=none;html=1;rounded=0;entryX=0.5;entryY=1;entryDx=0;entryDy=0;exitX=1;exitY=0.5;exitDx=0;exitDy=0;" parent="1" source="hu-6dLjI5PSRS7n1T90g-227" target="CsSzCPbxo0hBxs77Tv7x-106" edge="1">
          <mxGeometry relative="1" as="geometry">
            <mxPoint x="853" y="1089" as="sourcePoint" />
            <mxPoint x="623" y="1254" as="targetPoint" />
          </mxGeometry>
        </mxCell>
        <mxCell id="CsSzCPbxo0hBxs77Tv7x-110" value="1" style="edgeLabel;html=1;align=center;verticalAlign=middle;resizable=0;points=[];" parent="CsSzCPbxo0hBxs77Tv7x-108" vertex="1" connectable="0">
          <mxGeometry x="0.3405" y="3" relative="1" as="geometry">
            <mxPoint as="offset" />
          </mxGeometry>
        </mxCell>
        <mxCell id="CsSzCPbxo0hBxs77Tv7x-111" value="PayementMethod" style="whiteSpace=wrap;html=1;align=center;" parent="1" vertex="1">
          <mxGeometry x="1120" y="1295" width="100" height="40" as="geometry" />
        </mxCell>
        <mxCell id="CsSzCPbxo0hBxs77Tv7x-112" value="1" style="endArrow=none;html=1;rounded=0;exitX=1;exitY=0.5;exitDx=0;exitDy=0;entryX=0;entryY=0.5;entryDx=0;entryDy=0;" parent="1" source="CsSzCPbxo0hBxs77Tv7x-106" target="CsSzCPbxo0hBxs77Tv7x-111" edge="1">
          <mxGeometry relative="1" as="geometry">
            <mxPoint x="1080" y="1260" as="sourcePoint" />
            <mxPoint x="1240" y="1260" as="targetPoint" />
          </mxGeometry>
        </mxCell>
        <mxCell id="CsSzCPbxo0hBxs77Tv7x-113" value="Description" style="ellipse;whiteSpace=wrap;html=1;" parent="1" vertex="1">
          <mxGeometry x="1230" y="1220" width="80" height="50" as="geometry" />
        </mxCell>
        <mxCell id="CsSzCPbxo0hBxs77Tv7x-114" value="" style="endArrow=none;html=1;rounded=0;entryX=0.5;entryY=1;entryDx=0;entryDy=0;exitX=1;exitY=0;exitDx=0;exitDy=0;" parent="1" source="CsSzCPbxo0hBxs77Tv7x-111" target="CsSzCPbxo0hBxs77Tv7x-113" edge="1">
          <mxGeometry width="50" height="50" relative="1" as="geometry">
            <mxPoint x="1260" y="1325" as="sourcePoint" />
            <mxPoint x="1707" y="1036" as="targetPoint" />
          </mxGeometry>
        </mxCell>
        <mxCell id="CsSzCPbxo0hBxs77Tv7x-115" value="Pay" style="shape=rhombus;double=1;perimeter=rhombusPerimeter;whiteSpace=wrap;html=1;align=center;" parent="1" vertex="1">
          <mxGeometry x="1160" y="1100" width="120" height="60" as="geometry" />
        </mxCell>
        <mxCell id="CsSzCPbxo0hBxs77Tv7x-116" value="" style="endArrow=none;html=1;rounded=0;exitX=0.75;exitY=1;exitDx=0;exitDy=0;entryX=0;entryY=0.5;entryDx=0;entryDy=0;" parent="1" source="CsSzCPbxo0hBxs77Tv7x-92" target="CsSzCPbxo0hBxs77Tv7x-115" edge="1">
          <mxGeometry relative="1" as="geometry">
            <mxPoint x="1130" y="1060" as="sourcePoint" />
            <mxPoint x="1290" y="1060" as="targetPoint" />
          </mxGeometry>
        </mxCell>
        <mxCell id="CsSzCPbxo0hBxs77Tv7x-119" value="1" style="edgeLabel;html=1;align=center;verticalAlign=middle;resizable=0;points=[];" parent="CsSzCPbxo0hBxs77Tv7x-116" vertex="1" connectable="0">
          <mxGeometry x="0.1961" y="-2" relative="1" as="geometry">
            <mxPoint as="offset" />
          </mxGeometry>
        </mxCell>
        <mxCell id="CsSzCPbxo0hBxs77Tv7x-118" value="Payments" style="shape=ext;margin=3;double=1;whiteSpace=wrap;html=1;align=center;" parent="1" vertex="1">
          <mxGeometry x="1435" y="1105" width="117.5" height="50" as="geometry" />
        </mxCell>
        <mxCell id="CsSzCPbxo0hBxs77Tv7x-120" value="" style="endArrow=none;html=1;rounded=0;entryX=0;entryY=0.5;entryDx=0;entryDy=0;exitX=1;exitY=0.5;exitDx=0;exitDy=0;" parent="1" source="CsSzCPbxo0hBxs77Tv7x-115" target="CsSzCPbxo0hBxs77Tv7x-118" edge="1">
          <mxGeometry relative="1" as="geometry">
            <mxPoint x="1130" y="1060" as="sourcePoint" />
            <mxPoint x="1290" y="1060" as="targetPoint" />
          </mxGeometry>
        </mxCell>
        <mxCell id="CsSzCPbxo0hBxs77Tv7x-121" value="m" style="edgeLabel;html=1;align=center;verticalAlign=middle;resizable=0;points=[];" parent="CsSzCPbxo0hBxs77Tv7x-120" vertex="1" connectable="0">
          <mxGeometry x="-0.0078" relative="1" as="geometry">
            <mxPoint as="offset" />
          </mxGeometry>
        </mxCell>
        <mxCell id="DfmCjdgMH8wRzvkq9XMf-1" value="Rent_Price" style="ellipse;whiteSpace=wrap;html=1;" vertex="1" parent="1">
          <mxGeometry x="1810" y="311.90999999999997" width="80" height="50" as="geometry" />
        </mxCell>
        <mxCell id="DfmCjdgMH8wRzvkq9XMf-2" value="" style="endArrow=none;html=1;rounded=0;entryX=1;entryY=1;entryDx=0;entryDy=0;exitX=0.5;exitY=0;exitDx=0;exitDy=0;" edge="1" parent="1" source="DfmCjdgMH8wRzvkq9XMf-1" target="hu-6dLjI5PSRS7n1T90g-64">
          <mxGeometry relative="1" as="geometry">
            <mxPoint x="1750" y="301.90999999999997" as="sourcePoint" />
            <mxPoint x="1910" y="301.90999999999997" as="targetPoint" />
          </mxGeometry>
        </mxCell>
        <mxCell id="DfmCjdgMH8wRzvkq9XMf-3" value="" style="endArrow=none;html=1;rounded=0;exitX=1;exitY=1;exitDx=0;exitDy=0;entryX=0;entryY=1;entryDx=0;entryDy=0;" edge="1" parent="1" target="DfmCjdgMH8wRzvkq9XMf-4" source="CsSzCPbxo0hBxs77Tv7x-43">
          <mxGeometry relative="1" as="geometry">
            <mxPoint x="1518" y="893" as="sourcePoint" />
            <mxPoint x="1542" y="818" as="targetPoint" />
          </mxGeometry>
        </mxCell>
        <mxCell id="DfmCjdgMH8wRzvkq9XMf-4" value="Rental_duration" style="ellipse;whiteSpace=wrap;html=1;align=center;" vertex="1" parent="1">
          <mxGeometry x="1500" y="800" width="90" height="45" as="geometry" />
        </mxCell>
        <mxCell id="DfmCjdgMH8wRzvkq9XMf-5" value="Return" style="shape=rhombus;perimeter=rhombusPerimeter;whiteSpace=wrap;html=1;align=center;" vertex="1" parent="1">
          <mxGeometry x="1340" y="545" width="120" height="60" as="geometry" />
        </mxCell>
        <mxCell id="DfmCjdgMH8wRzvkq9XMf-7" value="" style="endArrow=none;html=1;rounded=0;entryX=0;entryY=0.5;entryDx=0;entryDy=0;exitX=1.003;exitY=0.15;exitDx=0;exitDy=0;exitPerimeter=0;" edge="1" parent="1" source="hu-6dLjI5PSRS7n1T90g-1" target="DfmCjdgMH8wRzvkq9XMf-5">
          <mxGeometry relative="1" as="geometry">
            <mxPoint x="1140" y="500" as="sourcePoint" />
            <mxPoint x="1300" y="500" as="targetPoint" />
          </mxGeometry>
        </mxCell>
        <mxCell id="DfmCjdgMH8wRzvkq9XMf-10" value="1" style="edgeLabel;html=1;align=center;verticalAlign=middle;resizable=0;points=[];" vertex="1" connectable="0" parent="DfmCjdgMH8wRzvkq9XMf-7">
          <mxGeometry x="0.1847" relative="1" as="geometry">
            <mxPoint as="offset" />
          </mxGeometry>
        </mxCell>
        <mxCell id="DfmCjdgMH8wRzvkq9XMf-11" value="&lt;u style=&quot;&quot;&gt;&lt;b&gt;LocationID&lt;/b&gt;&lt;/u&gt;" style="ellipse;whiteSpace=wrap;html=1;fillColor=#fff2cc;strokeColor=#d6b656;" vertex="1" parent="1">
          <mxGeometry x="475" y="586.81" width="80" height="50" as="geometry" />
        </mxCell>
        <mxCell id="DfmCjdgMH8wRzvkq9XMf-12" value="" style="endArrow=none;html=1;rounded=0;exitX=1;exitY=0.25;exitDx=0;exitDy=0;entryX=0;entryY=0.5;entryDx=0;entryDy=0;" edge="1" parent="1" source="96jUrJJoZ8PWwtf2zBIY-5" target="DfmCjdgMH8wRzvkq9XMf-11">
          <mxGeometry width="50" height="50" relative="1" as="geometry">
            <mxPoint x="380" y="627" as="sourcePoint" />
            <mxPoint x="490" y="657" as="targetPoint" />
          </mxGeometry>
        </mxCell>
        <mxCell id="DfmCjdgMH8wRzvkq9XMf-13" value="&lt;b&gt;&lt;u&gt;CarID&lt;/u&gt;&lt;/b&gt;" style="ellipse;whiteSpace=wrap;html=1;fillColor=#fff2cc;strokeColor=#d6b656;" vertex="1" parent="1">
          <mxGeometry x="1820" y="39.99999999999999" width="80" height="50" as="geometry" />
        </mxCell>
        <mxCell id="DfmCjdgMH8wRzvkq9XMf-14" value="" style="endArrow=none;html=1;rounded=0;entryX=0.5;entryY=1;entryDx=0;entryDy=0;exitX=0.75;exitY=0;exitDx=0;exitDy=0;" edge="1" parent="1" target="DfmCjdgMH8wRzvkq9XMf-13" source="hu-6dLjI5PSRS7n1T90g-64">
          <mxGeometry width="50" height="50" relative="1" as="geometry">
            <mxPoint x="1800" y="181.91" as="sourcePoint" />
            <mxPoint x="1912" y="89.91" as="targetPoint" />
          </mxGeometry>
        </mxCell>
        <mxCell id="DfmCjdgMH8wRzvkq9XMf-20" value="" style="endArrow=none;html=1;rounded=0;edgeStyle=orthogonalEdgeStyle;exitX=0.5;exitY=1;exitDx=0;exitDy=0;entryX=0.75;entryY=1;entryDx=0;entryDy=0;" edge="1" parent="1" source="CsSzCPbxo0hBxs77Tv7x-100" target="hu-6dLjI5PSRS7n1T90g-64">
          <mxGeometry width="50" height="50" relative="1" as="geometry">
            <mxPoint x="594.9399999999997" y="1264.54" as="sourcePoint" />
            <mxPoint x="1792.44" y="395.44" as="targetPoint" />
            <Array as="points">
              <mxPoint x="520" y="1030" />
              <mxPoint x="520" y="1110" />
              <mxPoint x="320" y="1110" />
              <mxPoint x="320" y="1510" />
              <mxPoint x="1810" y="1510" />
            </Array>
          </mxGeometry>
        </mxCell>
        <mxCell id="DfmCjdgMH8wRzvkq9XMf-21" value="1" style="edgeLabel;html=1;align=center;verticalAlign=middle;resizable=0;points=[];" vertex="1" connectable="0" parent="DfmCjdgMH8wRzvkq9XMf-20">
          <mxGeometry x="-0.979" y="3" relative="1" as="geometry">
            <mxPoint as="offset" />
          </mxGeometry>
        </mxCell>
        <mxCell id="DfmCjdgMH8wRzvkq9XMf-25" value="" style="endArrow=none;html=1;rounded=0;exitX=1;exitY=0.5;exitDx=0;exitDy=0;" edge="1" parent="1" source="DfmCjdgMH8wRzvkq9XMf-5">
          <mxGeometry width="50" height="50" relative="1" as="geometry">
            <mxPoint x="1500" y="410" as="sourcePoint" />
            <mxPoint x="1810" y="250" as="targetPoint" />
          </mxGeometry>
        </mxCell>
        <mxCell id="DfmCjdgMH8wRzvkq9XMf-26" value="N" style="edgeLabel;html=1;align=center;verticalAlign=middle;resizable=0;points=[];" vertex="1" connectable="0" parent="DfmCjdgMH8wRzvkq9XMf-25">
          <mxGeometry x="-0.2345" y="-7" relative="1" as="geometry">
            <mxPoint as="offset" />
          </mxGeometry>
        </mxCell>
      </root>
    </mxGraphModel>
  </diagram>
</mxfile>
